<mxfile host="app.diagrams.net" modified="2023-07-18T12:41:08.385Z" agent="Mozilla/5.0 (Macintosh; Intel Mac OS X 10_15_7) AppleWebKit/537.36 (KHTML, like Gecko) Chrome/114.0.0.0 Safari/537.36" version="21.6.2" etag="nti3MwJ5u-sN1SzeNFdj" type="github">
  <diagram name="ページ1" id="Utjcy80z0y0KjeMCchJZ">
    <mxGraphModel>
      <root>
        <mxCell id="0" />
        <mxCell id="1" parent="0" />
      </root>
    </mxGraphModel>
  </diagram>
</mxfile>
